/* XPM */
static char * icon_xpm[] = {
"22 22 8 1",
" 	c #2A24AA",
".	c #00247F",
"+	c #2A247F",
"@	c #0024AA",
"#	c #0049AA",
"$	c #2A49AA",
"%	c #2A497F",
"&	c #00497F",
" . +@+ . +@+ . +@+ . +",
"#+$@% # %@$ & $@% #+$@",
" . & .+# .+# .+# . #+ ",
"+#+ .$ @+$. +# +@% .$.",
"  & $.+$. $.$+@% . %@ ",
"$. @+# .$@+@+# .$@%@ +",
". %@+ .$+@% @+ & +@+#+",
"$+@% &  & +#+$.  & $. ",
"@ %@ . & @+@ .$. +@+$.",
"%@+@+$@+ %@% &  & #+@ ",
" .$+#+ & @+ . .$+@+$.$",
" %@ . #+@% #+# +#+$. +",
"@+$.$+@ %@+ #+@$. @ & ",
"% @+ @%. @%@+$+@+$.$+@",
"@+#+#+ $.$+@+@+$@+ . %",
"+#+  & . . .$ & .$@% @",
" +#.  & $+# .  .$+@+#+",
"$. $+#+@+@+#+$.$+@+$. ",
"@+#+@+ & $+ @+@ .$@+ &",
"%@ +# & @+#.$+#+$. %@ ",
" +#+ . % .  .$+@ %@ & ",
"& .$@%@ .$+#+@ & .$. +"};
